# xmcd
#
# Track frame offsets:
#	150
#	17957
#	29822
#	49220
#	79092
#	96366
#	112288
#	127002
#	146007
#	161919
#	185417
#
# Disc length: 2736 seconds
#
# Revision: 0
# Processed by: cddbd v1.5.2PL0 Copyright (c) Steve Scherf et al.
# Submitted via: dBpowerAMP V4.0
#
DISCID=a80aae0b
DTITLE=Shades of Blue - Sunday At Billy's
DYEAR=2006
DGENRE=Blues
TTITLE0=Let's Work Together [Wilbert Harrison]
TTITLE1=Reconsider Baby [Lowell Fulson]
TTITLE2=It Hurts Me Too [Elmore James]
TTITLE3=Black Magic Woman [Peter Green]
TTITLE4=Flip, Flop and Fly [Big Joe Turner]
TTITLE5=Wait On Time [Kim Wilson]
TTITLE6=Route 66 [Bobby Troup]
TTITLE7=Rollin' and Tumblin' [Hambone Willy Newburn]
TTITLE8=C'est La Vie [Chuck Berry]
TTITLE9=Cut You Loose [Otis Rush]
TTITLE10=Caldonia [F. Charrosin]
EXTD=
EXTT0=
EXTT1=
EXTT2=
EXTT3=
EXTT4=
EXTT5=
EXTT6=
EXTT7=
EXTT8=
EXTT9=
EXTT10=
PLAYORDER=
